<svg xmlns="http://www.w3.org/2000/svg" viewBox="0 0 107.57 113.36">
    <title>Mirror</title>
    <g id="Layer_2" data-name="Layer 2">
        <g id="Layer_1-2" data-name="Layer 1">
            <path d="M104.34,0h-1.93C95.48,15.72,87,34.83,78.93,52.73,70.51,33.88,61.7,14.3,55.23,0h-4C44.42,15.38,36,34.44,28.12,52.56c-7.6-17.3-15.79-36-23-52.56H0V113.36H5.15c7.18-16.56,15.37-35.26,23-52.55C36,78.92,44.42,98,51.21,113.36h4c6.47-14.3,15.28-33.88,23.7-52.73,8,17.9,16.55,37,23.48,52.73h5.16V0ZM3.22,110.62v-9.53c.08-11.59,0-30.22,0-44.41s.08-32.82,0-44.4V2.74c3.22,8.13,12.59,29.86,23.1,53.94C15.81,80.77,6.44,102.49,3.22,110.62Zm50.24-1H53.3c-2.79-6.33-12.3-27.8-23.37-53C41,31.51,50.51,10,53.3,3.7h.16c2.3,5.35,12.3,27.56,23.7,53C65.76,82.1,55.76,104.31,53.46,109.66Zm27.23-53C91.5,32.45,101.35,10.14,104.34,2.74v9.94c-.17,11.36,0,27.21,0,44s-.17,32.64,0,44v9.94C101.35,103.22,91.5,80.91,80.69,56.68Z"/>
        </g>
    </g>
</svg>